<svg xmlns="http://www.w3.org/2000/svg" viewBox="0 0 32 32" shape-rendering="crispEdges">
<rect width="32" height="32" fill="#0b0709"/>
<rect x="0" y="0" width="32" height="1" fill="#3a3f36"/>
<rect x="0" y="1" width="1" height="1" fill="#3a3f36"/>
<rect x="31" y="1" width="1" height="1" fill="#3a3f36"/>
<rect x="0" y="2" width="1" height="1" fill="#3a3f36"/>
<rect x="31" y="2" width="1" height="1" fill="#3a3f36"/>
<rect x="0" y="3" width="1" height="1" fill="#3a3f36"/>
<rect x="31" y="3" width="1" height="1" fill="#3a3f36"/>
<rect x="0" y="4" width="1" height="1" fill="#3a3f36"/>
<rect x="31" y="4" width="1" height="1" fill="#3a3f36"/>
<rect x="0" y="5" width="1" height="1" fill="#3a3f36"/>
<rect x="31" y="5" width="1" height="1" fill="#3a3f36"/>
<rect x="0" y="6" width="1" height="1" fill="#3a3f36"/>
<rect x="31" y="6" width="1" height="1" fill="#3a3f36"/>
<rect x="0" y="7" width="1" height="1" fill="#3a3f36"/>
<rect x="31" y="7" width="1" height="1" fill="#3a3f36"/>
<rect x="0" y="8" width="1" height="1" fill="#3a3f36"/>
<rect x="31" y="8" width="1" height="1" fill="#3a3f36"/>
<rect x="0" y="9" width="1" height="1" fill="#3a3f36"/>
<rect x="31" y="9" width="1" height="1" fill="#3a3f36"/>
<rect x="0" y="10" width="1" height="1" fill="#3a3f36"/>
<rect x="31" y="10" width="1" height="1" fill="#3a3f36"/>
<rect x="0" y="11" width="1" height="1" fill="#3a3f36"/>
<rect x="31" y="11" width="1" height="1" fill="#3a3f36"/>
<rect x="0" y="12" width="1" height="1" fill="#3a3f36"/>
<rect x="31" y="12" width="1" height="1" fill="#3a3f36"/>
<rect x="0" y="13" width="1" height="1" fill="#3a3f36"/>
<rect x="31" y="13" width="1" height="1" fill="#3a3f36"/>
<rect x="0" y="14" width="1" height="1" fill="#3a3f36"/>
<rect x="31" y="14" width="1" height="1" fill="#3a3f36"/>
<rect x="0" y="15" width="1" height="1" fill="#3a3f36"/>
<rect x="31" y="15" width="1" height="1" fill="#3a3f36"/>
<rect x="0" y="16" width="1" height="1" fill="#3a3f36"/>
<rect x="31" y="16" width="1" height="1" fill="#3a3f36"/>
<rect x="0" y="17" width="1" height="1" fill="#3a3f36"/>
<rect x="31" y="17" width="1" height="1" fill="#3a3f36"/>
<rect x="0" y="18" width="1" height="1" fill="#3a3f36"/>
<rect x="31" y="18" width="1" height="1" fill="#3a3f36"/>
<rect x="0" y="19" width="1" height="1" fill="#3a3f36"/>
<rect x="31" y="19" width="1" height="1" fill="#3a3f36"/>
<rect x="0" y="20" width="1" height="1" fill="#3a3f36"/>
<rect x="31" y="20" width="1" height="1" fill="#3a3f36"/>
<rect x="0" y="21" width="1" height="1" fill="#3a3f36"/>
<rect x="31" y="21" width="1" height="1" fill="#3a3f36"/>
<rect x="0" y="22" width="1" height="1" fill="#3a3f36"/>
<rect x="31" y="22" width="1" height="1" fill="#3a3f36"/>
<rect x="0" y="23" width="1" height="1" fill="#3a3f36"/>
<rect x="31" y="23" width="1" height="1" fill="#3a3f36"/>
<rect x="0" y="24" width="1" height="1" fill="#3a3f36"/>
<rect x="31" y="24" width="1" height="1" fill="#3a3f36"/>
<rect x="0" y="25" width="1" height="1" fill="#3a3f36"/>
<rect x="31" y="25" width="1" height="1" fill="#3a3f36"/>
<rect x="0" y="26" width="1" height="1" fill="#3a3f36"/>
<rect x="31" y="26" width="1" height="1" fill="#3a3f36"/>
<rect x="0" y="27" width="1" height="1" fill="#3a3f36"/>
<rect x="31" y="27" width="1" height="1" fill="#3a3f36"/>
<rect x="0" y="28" width="1" height="1" fill="#3a3f36"/>
<rect x="31" y="28" width="1" height="1" fill="#3a3f36"/>
<rect x="0" y="29" width="1" height="1" fill="#3a3f36"/>
<rect x="31" y="29" width="1" height="1" fill="#3a3f36"/>
<rect x="0" y="30" width="1" height="1" fill="#3a3f36"/>
<rect x="31" y="30" width="1" height="1" fill="#3a3f36"/>
<rect x="0" y="31" width="32" height="1" fill="#3a3f36"/>
<rect x="1" y="1" width="30" height="1" fill="#050305"/>
<rect x="1" y="2" width="1" height="1" fill="#050305"/>
<rect x="30" y="2" width="1" height="1" fill="#050305"/>
<rect x="1" y="3" width="1" height="1" fill="#050305"/>
<rect x="30" y="3" width="1" height="1" fill="#050305"/>
<rect x="1" y="4" width="1" height="1" fill="#050305"/>
<rect x="30" y="4" width="1" height="1" fill="#050305"/>
<rect x="1" y="5" width="1" height="1" fill="#050305"/>
<rect x="30" y="5" width="1" height="1" fill="#050305"/>
<rect x="1" y="6" width="1" height="1" fill="#050305"/>
<rect x="30" y="6" width="1" height="1" fill="#050305"/>
<rect x="1" y="7" width="1" height="1" fill="#050305"/>
<rect x="30" y="7" width="1" height="1" fill="#050305"/>
<rect x="1" y="8" width="1" height="1" fill="#050305"/>
<rect x="30" y="8" width="1" height="1" fill="#050305"/>
<rect x="1" y="9" width="1" height="1" fill="#050305"/>
<rect x="30" y="9" width="1" height="1" fill="#050305"/>
<rect x="1" y="10" width="1" height="1" fill="#050305"/>
<rect x="30" y="10" width="1" height="1" fill="#050305"/>
<rect x="1" y="11" width="1" height="1" fill="#050305"/>
<rect x="30" y="11" width="1" height="1" fill="#050305"/>
<rect x="1" y="12" width="1" height="1" fill="#050305"/>
<rect x="30" y="12" width="1" height="1" fill="#050305"/>
<rect x="1" y="13" width="1" height="1" fill="#050305"/>
<rect x="30" y="13" width="1" height="1" fill="#050305"/>
<rect x="1" y="14" width="1" height="1" fill="#050305"/>
<rect x="30" y="14" width="1" height="1" fill="#050305"/>
<rect x="1" y="15" width="1" height="1" fill="#050305"/>
<rect x="30" y="15" width="1" height="1" fill="#050305"/>
<rect x="1" y="16" width="1" height="1" fill="#050305"/>
<rect x="30" y="16" width="1" height="1" fill="#050305"/>
<rect x="1" y="17" width="1" height="1" fill="#050305"/>
<rect x="30" y="17" width="1" height="1" fill="#050305"/>
<rect x="1" y="18" width="1" height="1" fill="#050305"/>
<rect x="30" y="18" width="1" height="1" fill="#050305"/>
<rect x="1" y="19" width="1" height="1" fill="#050305"/>
<rect x="30" y="19" width="1" height="1" fill="#050305"/>
<rect x="1" y="20" width="1" height="1" fill="#050305"/>
<rect x="30" y="20" width="1" height="1" fill="#050305"/>
<rect x="1" y="21" width="1" height="1" fill="#050305"/>
<rect x="30" y="21" width="1" height="1" fill="#050305"/>
<rect x="1" y="22" width="1" height="1" fill="#050305"/>
<rect x="30" y="22" width="1" height="1" fill="#050305"/>
<rect x="1" y="23" width="1" height="1" fill="#050305"/>
<rect x="30" y="23" width="1" height="1" fill="#050305"/>
<rect x="1" y="24" width="1" height="1" fill="#050305"/>
<rect x="30" y="24" width="1" height="1" fill="#050305"/>
<rect x="1" y="25" width="1" height="1" fill="#050305"/>
<rect x="30" y="25" width="1" height="1" fill="#050305"/>
<rect x="1" y="26" width="1" height="1" fill="#050305"/>
<rect x="30" y="26" width="1" height="1" fill="#050305"/>
<rect x="1" y="27" width="1" height="1" fill="#050305"/>
<rect x="30" y="27" width="1" height="1" fill="#050305"/>
<rect x="1" y="28" width="1" height="1" fill="#050305"/>
<rect x="30" y="28" width="1" height="1" fill="#050305"/>
<rect x="1" y="29" width="1" height="1" fill="#050305"/>
<rect x="30" y="29" width="1" height="1" fill="#050305"/>
<rect x="1" y="30" width="30" height="1" fill="#050305"/>
<rect x="6" y="5" width="19" height="1" fill="#ffc850"/>
<rect x="6" y="6" width="2" height="1" fill="#ffc850"/>
<rect x="12" y="6" width="13" height="1" fill="#ffc850"/>
<rect x="6" y="7" width="19" height="1" fill="#ffc850"/>
<rect x="6" y="8" width="19" height="1" fill="#ffc850"/>
<rect x="6" y="9" width="2" height="1" fill="#ffc850"/>
<rect x="20" y="9" width="5" height="1" fill="#ffc850"/>
<rect x="6" y="10" width="2" height="1" fill="#ffc850"/>
<rect x="20" y="10" width="5" height="1" fill="#ffc850"/>
<rect x="6" y="11" width="2" height="1" fill="#ffc850"/>
<rect x="20" y="11" width="5" height="1" fill="#ffc850"/>
<rect x="12" y="24" width="4" height="1" fill="#ffc850"/>
<rect x="12" y="25" width="4" height="1" fill="#ffc850"/>
<rect x="13" y="23" width="4" height="1" fill="#ffc850"/>
<rect x="14" y="21" width="4" height="1" fill="#ffc850"/>
<rect x="14" y="22" width="4" height="1" fill="#ffc850"/>
<rect x="15" y="20" width="4" height="1" fill="#ffc850"/>
<rect x="16" y="18" width="4" height="1" fill="#ffc850"/>
<rect x="16" y="19" width="4" height="1" fill="#ffc850"/>
<rect x="17" y="17" width="4" height="1" fill="#ffc850"/>
<rect x="18" y="15" width="4" height="1" fill="#ffc850"/>
<rect x="18" y="16" width="4" height="1" fill="#ffc850"/>
<rect x="19" y="14" width="4" height="1" fill="#ffc850"/>
<rect x="20" y="12" width="5" height="1" fill="#ffc850"/>
<rect x="20" y="13" width="4" height="1" fill="#ffc850"/>
<rect x="23" y="26" width="1" height="1" fill="#ffc850"/>
<rect x="24" y="27" width="1" height="1" fill="#ffc850"/>
<rect x="8" y="6" width="4" height="1" fill="#e8e4c8"/>
<rect x="8" y="9" width="12" height="1" fill="#c48c28"/>
<rect x="11" y="24" width="1" height="1" fill="#c48c28"/>
<rect x="11" y="25" width="1" height="1" fill="#c48c28"/>
<rect x="12" y="23" width="1" height="1" fill="#c48c28"/>
<rect x="13" y="21" width="1" height="1" fill="#c48c28"/>
<rect x="13" y="22" width="1" height="1" fill="#c48c28"/>
<rect x="14" y="20" width="1" height="1" fill="#c48c28"/>
<rect x="15" y="18" width="1" height="1" fill="#c48c28"/>
<rect x="15" y="19" width="1" height="1" fill="#c48c28"/>
<rect x="16" y="17" width="1" height="1" fill="#c48c28"/>
<rect x="17" y="15" width="1" height="1" fill="#c48c28"/>
<rect x="17" y="16" width="1" height="1" fill="#c48c28"/>
<rect x="18" y="14" width="1" height="1" fill="#c48c28"/>
<rect x="19" y="12" width="1" height="1" fill="#c48c28"/>
<rect x="19" y="13" width="1" height="1" fill="#c48c28"/>
<rect x="8" y="26" width="15" height="1" fill="#c22a2a"/>
<rect x="8" y="27" width="15" height="1" fill="#c22a2a"/>
</svg>
